<svg xmlns="http://www.w3.org/2000/svg" width="1000" height="210" viewBox="0 0 1000 210">
  <rect width="1000" height="210" rx="14" fill="#181818"/>
  <circle cx="24" cy="26" r="8" fill="#58CC02"/>
  <text x="42" y="31" font-family="Menlo, monospace" font-size="15" font-weight="bold" fill="#ffffff">Duolingo</text>
  <text x="982" y="31" font-family="Menlo, monospace" font-size="10" fill="#6b6b6b" text-anchor="end">updated 2026-09-03</text>
  <line x1="0" y1="46" x2="1000" y2="46" stroke="#2a2a2a" stroke-width="1"/>

  <text x="24" y="96" font-family="Menlo, monospace" font-size="34" font-weight="bold" fill="#58CC02">🔥 716</text>
  <text x="24" y="116" font-family="Menlo, monospace" font-size="12" fill="#9b9b9b">day streak · since 2024-07-28</text>
  <text x="24" y="138" font-family="Menlo, monospace" font-size="12" fill="#c8c8c8">79,458 total XP</text>

  <rect x="24" y="150" width="131" height="22" rx="11" fill="#242424"/><text x="89" y="165" text-anchor="middle" font-family="Menlo, monospace" font-size="11" fill="#c8c8c8">French 75,354 XP</text><rect x="165" y="150" width="116" height="22" rx="11" fill="#242424"/><text x="223" y="165" text-anchor="middle" font-family="Menlo, monospace" font-size="11" fill="#c8c8c8">Dutch 3,314 XP</text><rect x="291" y="150" width="109" height="22" rx="11" fill="#242424"/><text x="345" y="165" text-anchor="middle" font-family="Menlo, monospace" font-size="11" fill="#c8c8c8">German 480 XP</text><rect x="410" y="150" width="116" height="22" rx="11" fill="#242424"/><text x="468" y="165" text-anchor="middle" font-family="Menlo, monospace" font-size="11" fill="#c8c8c8">Italian 310 XP</text>

  <text x="612" y="54" font-family="Menlo, monospace" font-size="10" fill="#6b6b6b">practice days</text>
  <rect x="612" y="62" width="11" height="11" rx="2" fill="#242424"/><rect x="612" y="76" width="11" height="11" rx="2" fill="#242424"/><rect x="612" y="90" width="11" height="11" rx="2" fill="#242424"/><rect x="612" y="104" width="11" height="11" rx="2" fill="#242424"/><rect x="612" y="118" width="11" height="11" rx="2" fill="#242424"/><rect x="612" y="132" width="11" height="11" rx="2" fill="#242424"/><rect x="612" y="146" width="11" height="11" rx="2" fill="#242424"/><rect x="626" y="62" width="11" height="11" rx="2" fill="#242424"/><rect x="626" y="76" width="11" height="11" rx="2" fill="#242424"/><rect x="626" y="90" width="11" height="11" rx="2" fill="#242424"/><rect x="626" y="104" width="11" height="11" rx="2" fill="#242424"/><rect x="626" y="118" width="11" height="11" rx="2" fill="#242424"/><rect x="626" y="132" width="11" height="11" rx="2" fill="#242424"/><rect x="626" y="146" width="11" height="11" rx="2" fill="#242424"/><rect x="640" y="62" width="11" height="11" rx="2" fill="#242424"/><rect x="640" y="76" width="11" height="11" rx="2" fill="#242424"/><rect x="640" y="90" width="11" height="11" rx="2" fill="#242424"/><rect x="640" y="104" width="11" height="11" rx="2" fill="#242424"/><rect x="640" y="118" width="11" height="11" rx="2" fill="#242424"/><rect x="640" y="132" width="11" height="11" rx="2" fill="#242424"/><rect x="640" y="146" width="11" height="11" rx="2" fill="#242424"/><rect x="654" y="62" width="11" height="11" rx="2" fill="#242424"/><rect x="654" y="76" width="11" height="11" rx="2" fill="#242424"/><rect x="654" y="90" width="11" height="11" rx="2" fill="#242424"/><rect x="654" y="104" width="11" height="11" rx="2" fill="#242424"/><rect x="654" y="118" width="11" height="11" rx="2" fill="#242424"/><rect x="654" y="132" width="11" height="11" rx="2" fill="#242424"/><rect x="654" y="146" width="11" height="11" rx="2" fill="#242424"/><rect x="668" y="62" width="11" height="11" rx="2" fill="#242424"/><rect x="668" y="76" width="11" height="11" rx="2" fill="#242424"/><rect x="668" y="90" width="11" height="11" rx="2" fill="#242424"/><rect x="668" y="104" width="11" height="11" rx="2" fill="#242424"/><rect x="668" y="118" width="11" height="11" rx="2" fill="#242424"/><rect x="668" y="132" width="11" height="11" rx="2" fill="#242424"/><rect x="668" y="146" width="11" height="11" rx="2" fill="#242424"/><rect x="682" y="62" width="11" height="11" rx="2" fill="#242424"/><rect x="682" y="76" width="11" height="11" rx="2" fill="#242424"/><rect x="682" y="90" width="11" height="11" rx="2" fill="#242424"/><rect x="682" y="104" width="11" height="11" rx="2" fill="#242424"/><rect x="682" y="118" width="11" height="11" rx="2" fill="#242424"/><rect x="682" y="132" width="11" height="11" rx="2" fill="#242424"/><rect x="682" y="146" width="11" height="11" rx="2" fill="#242424"/><rect x="696" y="62" width="11" height="11" rx="2" fill="#242424"/><rect x="696" y="76" width="11" height="11" rx="2" fill="#242424"/><rect x="696" y="90" width="11" height="11" rx="2" fill="#242424"/><rect x="696" y="104" width="11" height="11" rx="2" fill="#242424"/><rect x="696" y="118" width="11" height="11" rx="2" fill="#242424"/><rect x="696" y="132" width="11" height="11" rx="2" fill="#242424"/><rect x="696" y="146" width="11" height="11" rx="2" fill="#242424"/><rect x="710" y="62" width="11" height="11" rx="2" fill="#242424"/><rect x="710" y="76" width="11" height="11" rx="2" fill="#242424"/><rect x="710" y="90" width="11" height="11" rx="2" fill="#242424"/><rect x="710" y="104" width="11" height="11" rx="2" fill="#242424"/><rect x="710" y="118" width="11" height="11" rx="2" fill="#242424"/><rect x="710" y="132" width="11" height="11" rx="2" fill="#242424"/><rect x="710" y="146" width="11" height="11" rx="2" fill="#242424"/><rect x="724" y="62" width="11" height="11" rx="2" fill="#242424"/><rect x="724" y="76" width="11" height="11" rx="2" fill="#242424"/><rect x="724" y="90" width="11" height="11" rx="2" fill="#242424"/><rect x="724" y="104" width="11" height="11" rx="2" fill="#242424"/><rect x="724" y="118" width="11" height="11" rx="2" fill="#242424"/><rect x="724" y="132" width="11" height="11" rx="2" fill="#242424"/><rect x="724" y="146" width="11" height="11" rx="2" fill="#242424"/><rect x="738" y="62" width="11" height="11" rx="2" fill="#242424"/><rect x="738" y="76" width="11" height="11" rx="2" fill="#242424"/><rect x="738" y="90" width="11" height="11" rx="2" fill="#242424"/><rect x="738" y="104" width="11" height="11" rx="2" fill="#242424"/><rect x="738" y="118" width="11" height="11" rx="2" fill="#242424"/><rect x="738" y="132" width="11" height="11" rx="2" fill="#242424"/><rect x="738" y="146" width="11" height="11" rx="2" fill="#242424"/><rect x="752" y="62" width="11" height="11" rx="2" fill="#242424"/><rect x="752" y="76" width="11" height="11" rx="2" fill="#242424"/><rect x="752" y="90" width="11" height="11" rx="2" fill="#242424"/><rect x="752" y="104" width="11" height="11" rx="2" fill="#242424"/><rect x="752" y="118" width="11" height="11" rx="2" fill="#242424"/><rect x="752" y="132" width="11" height="11" rx="2" fill="#242424"/><rect x="752" y="146" width="11" height="11" rx="2" fill="#242424"/><rect x="766" y="62" width="11" height="11" rx="2" fill="#242424"/><rect x="766" y="76" width="11" height="11" rx="2" fill="#242424"/><rect x="766" y="90" width="11" height="11" rx="2" fill="#242424"/><rect x="766" y="104" width="11" height="11" rx="2" fill="#242424"/><rect x="766" y="118" width="11" height="11" rx="2" fill="#242424"/><rect x="766" y="132" width="11" height="11" rx="2" fill="#242424"/><rect x="766" y="146" width="11" height="11" rx="2" fill="#242424"/><rect x="780" y="62" width="11" height="11" rx="2" fill="#242424"/><rect x="780" y="76" width="11" height="11" rx="2" fill="#242424"/><rect x="780" y="90" width="11" height="11" rx="2" fill="#242424"/><rect x="780" y="104" width="11" height="11" rx="2" fill="#242424"/><rect x="780" y="118" width="11" height="11" rx="2" fill="#242424"/><rect x="780" y="132" width="11" height="11" rx="2" fill="#242424"/><rect x="780" y="146" width="11" height="11" rx="2" fill="#242424"/><rect x="794" y="62" width="11" height="11" rx="2" fill="#242424"/><rect x="794" y="76" width="11" height="11" rx="2" fill="#242424"/><rect x="794" y="90" width="11" height="11" rx="2" fill="#242424"/><rect x="794" y="104" width="11" height="11" rx="2" fill="#242424"/><rect x="794" y="118" width="11" height="11" rx="2" fill="#242424"/><rect x="794" y="132" width="11" height="11" rx="2" fill="#242424"/><rect x="794" y="146" width="11" height="11" rx="2" fill="#242424"/><rect x="808" y="62" width="11" height="11" rx="2" fill="#242424"/><rect x="808" y="76" width="11" height="11" rx="2" fill="#242424"/><rect x="808" y="90" width="11" height="11" rx="2" fill="#242424"/><rect x="808" y="104" width="11" height="11" rx="2" fill="#242424"/><rect x="808" y="118" width="11" height="11" rx="2" fill="#242424"/><rect x="808" y="132" width="11" height="11" rx="2" fill="#242424"/><rect x="808" y="146" width="11" height="11" rx="2" fill="#242424"/><rect x="822" y="62" width="11" height="11" rx="2" fill="#242424"/><rect x="822" y="76" width="11" height="11" rx="2" fill="#242424"/><rect x="822" y="90" width="11" height="11" rx="2" fill="#242424"/><rect x="822" y="104" width="11" height="11" rx="2" fill="#242424"/><rect x="822" y="118" width="11" height="11" rx="2" fill="#242424"/><rect x="822" y="132" width="11" height="11" rx="2" fill="#242424"/><rect x="822" y="146" width="11" height="11" rx="2" fill="#242424"/><rect x="836" y="62" width="11" height="11" rx="2" fill="#242424"/><rect x="836" y="76" width="11" height="11" rx="2" fill="#242424"/><rect x="836" y="90" width="11" height="11" rx="2" fill="#242424"/><rect x="836" y="104" width="11" height="11" rx="2" fill="#242424"/><rect x="836" y="118" width="11" height="11" rx="2" fill="#242424"/><rect x="836" y="132" width="11" height="11" rx="2" fill="#242424"/><rect x="836" y="146" width="11" height="11" rx="2" fill="#242424"/><rect x="850" y="62" width="11" height="11" rx="2" fill="#242424"/><rect x="850" y="76" width="11" height="11" rx="2" fill="#242424"/><rect x="850" y="90" width="11" height="11" rx="2" fill="#242424"/><rect x="850" y="104" width="11" height="11" rx="2" fill="#242424"/><rect x="850" y="118" width="11" height="11" rx="2" fill="#242424"/><rect x="850" y="132" width="11" height="11" rx="2" fill="#242424"/><rect x="850" y="146" width="11" height="11" rx="2" fill="#242424"/><rect x="864" y="62" width="11" height="11" rx="2" fill="#242424"/><rect x="864" y="76" width="11" height="11" rx="2" fill="#242424"/><rect x="864" y="90" width="11" height="11" rx="2" fill="#242424"/><rect x="864" y="104" width="11" height="11" rx="2" fill="#242424"/><rect x="864" y="118" width="11" height="11" rx="2" fill="#242424"/><rect x="864" y="132" width="11" height="11" rx="2" fill="#242424"/><rect x="864" y="146" width="11" height="11" rx="2" fill="#242424"/><rect x="878" y="62" width="11" height="11" rx="2" fill="#242424"/><rect x="878" y="76" width="11" height="11" rx="2" fill="#242424"/><rect x="878" y="90" width="11" height="11" rx="2" fill="#242424"/><rect x="878" y="104" width="11" height="11" rx="2" fill="#242424"/><rect x="878" y="118" width="11" height="11" rx="2" fill="#242424"/><rect x="878" y="132" width="11" height="11" rx="2" fill="#242424"/><rect x="878" y="146" width="11" height="11" rx="2" fill="#242424"/><rect x="892" y="62" width="11" height="11" rx="2" fill="#242424"/><rect x="892" y="76" width="11" height="11" rx="2" fill="#242424"/><rect x="892" y="90" width="11" height="11" rx="2" fill="#242424"/><rect x="892" y="104" width="11" height="11" rx="2" fill="#242424"/><rect x="892" y="118" width="11" height="11" rx="2" fill="#242424"/><rect x="892" y="132" width="11" height="11" rx="2" fill="#242424"/><rect x="892" y="146" width="11" height="11" rx="2" fill="#242424"/><rect x="906" y="62" width="11" height="11" rx="2" fill="#242424"/><rect x="906" y="76" width="11" height="11" rx="2" fill="#242424"/><rect x="906" y="90" width="11" height="11" rx="2" fill="#242424"/><rect x="906" y="104" width="11" height="11" rx="2" fill="#242424"/><rect x="906" y="118" width="11" height="11" rx="2" fill="#242424"/><rect x="906" y="132" width="11" height="11" rx="2" fill="#242424"/><rect x="906" y="146" width="11" height="11" rx="2" fill="#242424"/><rect x="920" y="62" width="11" height="11" rx="2" fill="#242424"/><rect x="920" y="76" width="11" height="11" rx="2" fill="#242424"/><rect x="920" y="90" width="11" height="11" rx="2" fill="#242424"/><rect x="920" y="104" width="11" height="11" rx="2" fill="#242424"/><rect x="920" y="118" width="11" height="11" rx="2" fill="#242424"/><rect x="920" y="132" width="11" height="11" rx="2" fill="#242424"/><rect x="920" y="146" width="11" height="11" rx="2" fill="#242424"/><rect x="934" y="62" width="11" height="11" rx="2" fill="#242424"/><rect x="934" y="76" width="11" height="11" rx="2" fill="#2b5c10"/><rect x="934" y="90" width="11" height="11" rx="2" fill="#58CC02"/><rect x="934" y="104" width="11" height="11" rx="2" fill="#58CC02"/><rect x="934" y="118" width="11" height="11" rx="2" fill="#58CC02"/><rect x="934" y="132" width="11" height="11" rx="2" fill="#2b5c10"/><rect x="934" y="146" width="11" height="11" rx="2" fill="#58CC02"/><rect x="948" y="62" width="11" height="11" rx="2" fill="#58CC02"/><rect x="948" y="76" width="11" height="11" rx="2" fill="#58CC02"/><rect x="948" y="90" width="11" height="11" rx="2" fill="#58CC02"/><rect x="948" y="104" width="11" height="11" rx="2" fill="#58CC02"/><rect x="948" y="118" width="11" height="11" rx="2" fill="#2b5c10"/><rect x="948" y="132" width="11" height="11" rx="2" fill="#58CC02"/><rect x="948" y="146" width="11" height="11" rx="2" fill="#242424"/><rect x="962" y="62" width="11" height="11" rx="2" fill="#58CC02"/><rect x="962" y="76" width="11" height="11" rx="2" fill="#58CC02"/><rect x="962" y="90" width="11" height="11" rx="2" fill="#58CC02"/><rect x="962" y="104" width="11" height="11" rx="2" fill="#58CC02"/><rect x="962" y="118" width="11" height="11" rx="2" fill="#58CC02"/><rect x="962" y="132" width="11" height="11" rx="2" fill="#58CC02"/><rect x="962" y="146" width="11" height="11" rx="2" fill="#58CC02"/>
</svg>
