<svg xmlns="http://www.w3.org/2000/svg" width="160" height="150" viewBox="0 0 180 150">
  <g transform-origin="120px 120px">
    <animateTransform attributeName="transform" type="rotate" values="0;12;-8;0" dur="2.2s" repeatCount="indefinite"/>
    <path d="M120,120 Q150,110 145,80 Q142,60 125,55" stroke="#e8a33d" stroke-width="14" fill="none" stroke-linecap="round"/>
  </g>

  <ellipse cx="65" cy="132" rx="10" ry="8" fill="#f7cf8a"/>
  <ellipse cx="95" cy="132" rx="10" ry="8" fill="#f7cf8a"/>

  <rect x="45" y="70" width="80" height="65" rx="32" fill="#e8a33d"/>
  <ellipse cx="85" cy="115" rx="22" ry="18" fill="#f7cf8a"/>

  <rect x="55" y="30" width="60" height="48" rx="22" fill="#e8a33d"/>

  <polygon points="60,36 70,8 82,34" fill="#e8a33d"/>
  <polygon points="64,32 70,16 77,31" fill="#f5b8c4"/>
  <polygon points="88,34 100,8 110,36" fill="#e8a33d"/>
  <polygon points="93,31 100,16 106,32" fill="#f5b8c4"/>

  <line x1="55" y1="58" x2="35" y2="54" stroke="#1f2937" stroke-width="1.5"/>
  <line x1="55" y1="63" x2="35" y2="65" stroke="#1f2937" stroke-width="1.5"/>
  <line x1="115" y1="58" x2="135" y2="54" stroke="#1f2937" stroke-width="1.5"/>
  <line x1="115" y1="63" x2="135" y2="65" stroke="#1f2937" stroke-width="1.5"/>

  <ellipse cx="72" cy="52" rx="4" ry="5" fill="#1f2937">
    <animate attributeName="ry" values="5;5;0.4;5" keyTimes="0;0.9;0.95;1" dur="4s" repeatCount="indefinite"/>
  </ellipse>
  <ellipse cx="98" cy="52" rx="4" ry="5" fill="#1f2937">
    <animate attributeName="ry" values="5;5;0.4;5" keyTimes="0;0.9;0.95;1" dur="4s" repeatCount="indefinite"/>
  </ellipse>

  <polygon points="82,60 88,60 85,65" fill="#c2536b"/>
</svg>
